<mxfile host="app.diagrams.net" modified="2020-04-20T08:51:41.015Z" agent="5.0 (Windows NT 10.0; Win64; x64) AppleWebKit/537.36 (KHTML, like Gecko) Chrome/81.0.4044.92 Safari/537.36" etag="KPmfgGdebUt6EjjaJ5ZY" version="12.9.14" type="github">
  <diagram name="Page-1" id="74e2e168-ea6b-b213-b513-2b3c1d86103e">
    <mxGraphModel dx="1038" dy="548" grid="1" gridSize="10" guides="1" tooltips="1" connect="1" arrows="1" fold="1" page="1" pageScale="1" pageWidth="1100" pageHeight="850" background="#ffffff" math="0" shadow="0">
      <root>
        <mxCell id="0" />
        <mxCell id="1" parent="0" />
        <mxCell id="77e6c97f196da883-1" value="WMS离线入库流程" style="swimlane;html=1;childLayout=stackLayout;startSize=20;rounded=0;shadow=0;labelBackgroundColor=none;strokeWidth=1;fontFamily=Verdana;fontSize=8;align=center;" parent="1" vertex="1">
          <mxGeometry x="70" y="40" width="800" height="520" as="geometry" />
        </mxCell>
        <mxCell id="77e6c97f196da883-2" value="现场仓库" style="swimlane;html=1;startSize=20;" parent="77e6c97f196da883-1" vertex="1">
          <mxGeometry y="20" width="160" height="500" as="geometry" />
        </mxCell>
        <mxCell id="xVUOFaVbMT0TcznLDlmr-18" value="" style="edgeStyle=orthogonalEdgeStyle;rounded=0;orthogonalLoop=1;jettySize=auto;html=1;" edge="1" parent="77e6c97f196da883-2" source="77e6c97f196da883-8" target="77e6c97f196da883-9">
          <mxGeometry relative="1" as="geometry" />
        </mxCell>
        <mxCell id="77e6c97f196da883-8" value="车辆入库" style="rounded=1;whiteSpace=wrap;html=1;shadow=0;labelBackgroundColor=none;strokeWidth=1;fontFamily=Verdana;fontSize=8;align=center;" parent="77e6c97f196da883-2" vertex="1">
          <mxGeometry x="20" y="66" width="100" height="60" as="geometry" />
        </mxCell>
        <mxCell id="77e6c97f196da883-9" value="重车过磅" style="rounded=1;whiteSpace=wrap;html=1;shadow=0;labelBackgroundColor=none;strokeWidth=1;fontFamily=Verdana;fontSize=8;align=center;" parent="77e6c97f196da883-2" vertex="1">
          <mxGeometry x="20" y="156" width="100" height="60" as="geometry" />
        </mxCell>
        <mxCell id="77e6c97f196da883-10" value="卸货签到" style="rounded=1;whiteSpace=wrap;html=1;shadow=0;labelBackgroundColor=none;strokeWidth=1;fontFamily=Verdana;fontSize=8;align=center;" parent="77e6c97f196da883-2" vertex="1">
          <mxGeometry x="20" y="251" width="100" height="60" as="geometry" />
        </mxCell>
        <mxCell id="xVUOFaVbMT0TcznLDlmr-5" value="空车过磅" style="rounded=1;whiteSpace=wrap;html=1;shadow=0;labelBackgroundColor=none;strokeWidth=1;fontFamily=Verdana;fontSize=8;align=center;" vertex="1" parent="77e6c97f196da883-2">
          <mxGeometry x="20" y="391" width="100" height="60" as="geometry" />
        </mxCell>
        <mxCell id="77e6c97f196da883-3" value="POS" style="swimlane;html=1;startSize=20;" parent="77e6c97f196da883-1" vertex="1">
          <mxGeometry x="160" y="20" width="160" height="500" as="geometry" />
        </mxCell>
        <mxCell id="xVUOFaVbMT0TcznLDlmr-7" value="记录空车过磅" style="rounded=1;whiteSpace=wrap;html=1;shadow=0;labelBackgroundColor=none;strokeWidth=1;fontFamily=Verdana;fontSize=8;align=center;" vertex="1" parent="77e6c97f196da883-3">
          <mxGeometry x="40" y="391" width="100" height="60" as="geometry" />
        </mxCell>
        <mxCell id="xVUOFaVbMT0TcznLDlmr-9" value="记录卸货签到" style="rounded=1;whiteSpace=wrap;html=1;shadow=0;labelBackgroundColor=none;strokeWidth=1;fontFamily=Verdana;fontSize=8;align=center;" vertex="1" parent="77e6c97f196da883-3">
          <mxGeometry x="40" y="251" width="100" height="60" as="geometry" />
        </mxCell>
        <mxCell id="xVUOFaVbMT0TcznLDlmr-11" value="记录重车过磅" style="rounded=1;whiteSpace=wrap;html=1;shadow=0;labelBackgroundColor=none;strokeWidth=1;fontFamily=Verdana;fontSize=8;align=center;" vertex="1" parent="77e6c97f196da883-3">
          <mxGeometry x="40" y="156" width="100" height="60" as="geometry" />
        </mxCell>
        <mxCell id="77e6c97f196da883-11" value="创建离线入库单" style="rounded=1;whiteSpace=wrap;html=1;shadow=0;labelBackgroundColor=none;strokeWidth=1;fontFamily=Verdana;fontSize=8;align=center;fillColor=#d5e8d4;strokeColor=#82b366;" parent="77e6c97f196da883-3" vertex="1">
          <mxGeometry x="40" y="66" width="100" height="60" as="geometry" />
        </mxCell>
        <mxCell id="77e6c97f196da883-4" value="离线服务" style="swimlane;html=1;startSize=20;" parent="77e6c97f196da883-1" vertex="1">
          <mxGeometry x="320" y="20" width="160" height="500" as="geometry" />
        </mxCell>
        <mxCell id="xVUOFaVbMT0TcznLDlmr-24" value="离线数据" style="shape=cylinder;whiteSpace=wrap;html=1;boundedLbl=1;backgroundOutline=1;" vertex="1" parent="77e6c97f196da883-4">
          <mxGeometry x="50" y="196" width="60" height="80" as="geometry" />
        </mxCell>
        <mxCell id="xVUOFaVbMT0TcznLDlmr-34" value="" style="edgeStyle=orthogonalEdgeStyle;rounded=0;orthogonalLoop=1;jettySize=auto;html=1;" edge="1" parent="77e6c97f196da883-4" source="xVUOFaVbMT0TcznLDlmr-30" target="xVUOFaVbMT0TcznLDlmr-24">
          <mxGeometry relative="1" as="geometry" />
        </mxCell>
        <mxCell id="xVUOFaVbMT0TcznLDlmr-30" value="调度器" style="verticalLabelPosition=top;verticalAlign=bottom;html=1;shape=process;whiteSpace=wrap;rounded=1;size=0.14;arcSize=6;labelPosition=center;align=center;" vertex="1" parent="77e6c97f196da883-4">
          <mxGeometry x="30" y="66" width="100" height="60" as="geometry" />
        </mxCell>
        <mxCell id="77e6c97f196da883-5" value="MQ" style="swimlane;html=1;startSize=20;" parent="77e6c97f196da883-1" vertex="1">
          <mxGeometry x="480" y="20" width="160" height="500" as="geometry" />
        </mxCell>
        <mxCell id="xVUOFaVbMT0TcznLDlmr-36" value="" style="strokeWidth=2;html=1;shape=mxgraph.flowchart.direct_data;whiteSpace=wrap;" vertex="1" parent="77e6c97f196da883-5">
          <mxGeometry x="30" y="66" width="100" height="60" as="geometry" />
        </mxCell>
        <mxCell id="77e6c97f196da883-6" value="WMS" style="swimlane;html=1;startSize=20;" parent="77e6c97f196da883-1" vertex="1">
          <mxGeometry x="640" y="20" width="160" height="500" as="geometry" />
        </mxCell>
        <mxCell id="xVUOFaVbMT0TcznLDlmr-40" value="" style="edgeStyle=orthogonalEdgeStyle;rounded=0;orthogonalLoop=1;jettySize=auto;html=1;" edge="1" parent="77e6c97f196da883-6" source="xVUOFaVbMT0TcznLDlmr-38" target="xVUOFaVbMT0TcznLDlmr-39">
          <mxGeometry relative="1" as="geometry" />
        </mxCell>
        <mxCell id="xVUOFaVbMT0TcznLDlmr-38" value="离线数据处理" style="verticalLabelPosition=top;verticalAlign=bottom;html=1;shape=process;whiteSpace=wrap;rounded=1;size=0.14;arcSize=6;labelPosition=center;align=center;" vertex="1" parent="77e6c97f196da883-6">
          <mxGeometry x="30" y="66" width="100" height="60" as="geometry" />
        </mxCell>
        <mxCell id="xVUOFaVbMT0TcznLDlmr-39" value="数据库" style="strokeWidth=2;html=1;shape=mxgraph.flowchart.database;whiteSpace=wrap;fillColor=#e1d5e7;strokeColor=#9673a6;" vertex="1" parent="77e6c97f196da883-6">
          <mxGeometry x="50" y="196" width="60" height="60" as="geometry" />
        </mxCell>
        <mxCell id="xVUOFaVbMT0TcznLDlmr-13" value="" style="edgeStyle=orthogonalEdgeStyle;rounded=0;orthogonalLoop=1;jettySize=auto;html=1;" edge="1" parent="77e6c97f196da883-1" source="77e6c97f196da883-11" target="77e6c97f196da883-8">
          <mxGeometry relative="1" as="geometry" />
        </mxCell>
        <mxCell id="xVUOFaVbMT0TcznLDlmr-19" value="" style="edgeStyle=orthogonalEdgeStyle;rounded=0;orthogonalLoop=1;jettySize=auto;html=1;" edge="1" parent="77e6c97f196da883-1" source="77e6c97f196da883-9" target="xVUOFaVbMT0TcznLDlmr-11">
          <mxGeometry relative="1" as="geometry" />
        </mxCell>
        <mxCell id="xVUOFaVbMT0TcznLDlmr-21" value="" style="edgeStyle=orthogonalEdgeStyle;rounded=0;orthogonalLoop=1;jettySize=auto;html=1;" edge="1" parent="77e6c97f196da883-1" source="77e6c97f196da883-10" target="xVUOFaVbMT0TcznLDlmr-9">
          <mxGeometry relative="1" as="geometry" />
        </mxCell>
        <mxCell id="xVUOFaVbMT0TcznLDlmr-23" value="" style="edgeStyle=orthogonalEdgeStyle;rounded=0;orthogonalLoop=1;jettySize=auto;html=1;" edge="1" parent="77e6c97f196da883-1" source="xVUOFaVbMT0TcznLDlmr-5" target="xVUOFaVbMT0TcznLDlmr-7">
          <mxGeometry relative="1" as="geometry" />
        </mxCell>
        <mxCell id="xVUOFaVbMT0TcznLDlmr-20" value="" style="edgeStyle=orthogonalEdgeStyle;rounded=0;orthogonalLoop=1;jettySize=auto;html=1;exitX=0.5;exitY=1;exitDx=0;exitDy=0;" edge="1" parent="77e6c97f196da883-1" source="xVUOFaVbMT0TcznLDlmr-11" target="77e6c97f196da883-10">
          <mxGeometry relative="1" as="geometry">
            <Array as="points">
              <mxPoint x="250" y="251" />
              <mxPoint x="70" y="251" />
            </Array>
          </mxGeometry>
        </mxCell>
        <mxCell id="xVUOFaVbMT0TcznLDlmr-22" value="" style="edgeStyle=orthogonalEdgeStyle;rounded=0;orthogonalLoop=1;jettySize=auto;html=1;exitX=0.5;exitY=1;exitDx=0;exitDy=0;" edge="1" parent="77e6c97f196da883-1" source="xVUOFaVbMT0TcznLDlmr-9" target="xVUOFaVbMT0TcznLDlmr-5">
          <mxGeometry relative="1" as="geometry" />
        </mxCell>
        <mxCell id="xVUOFaVbMT0TcznLDlmr-31" style="edgeStyle=orthogonalEdgeStyle;rounded=0;orthogonalLoop=1;jettySize=auto;html=1;exitX=1;exitY=0.5;exitDx=0;exitDy=0;entryX=0;entryY=0.5;entryDx=0;entryDy=0;" edge="1" parent="77e6c97f196da883-1" source="xVUOFaVbMT0TcznLDlmr-9" target="xVUOFaVbMT0TcznLDlmr-24">
          <mxGeometry relative="1" as="geometry" />
        </mxCell>
        <mxCell id="xVUOFaVbMT0TcznLDlmr-32" style="edgeStyle=orthogonalEdgeStyle;rounded=0;orthogonalLoop=1;jettySize=auto;html=1;exitX=1;exitY=0.5;exitDx=0;exitDy=0;entryX=0;entryY=0.5;entryDx=0;entryDy=0;" edge="1" parent="77e6c97f196da883-1" source="xVUOFaVbMT0TcznLDlmr-11" target="xVUOFaVbMT0TcznLDlmr-24">
          <mxGeometry relative="1" as="geometry" />
        </mxCell>
        <mxCell id="xVUOFaVbMT0TcznLDlmr-33" style="edgeStyle=orthogonalEdgeStyle;rounded=0;orthogonalLoop=1;jettySize=auto;html=1;exitX=1;exitY=0.5;exitDx=0;exitDy=0;entryX=0;entryY=0.5;entryDx=0;entryDy=0;" edge="1" parent="77e6c97f196da883-1" source="77e6c97f196da883-11" target="xVUOFaVbMT0TcznLDlmr-24">
          <mxGeometry relative="1" as="geometry" />
        </mxCell>
        <mxCell id="xVUOFaVbMT0TcznLDlmr-35" style="edgeStyle=orthogonalEdgeStyle;rounded=0;orthogonalLoop=1;jettySize=auto;html=1;exitX=1;exitY=0.5;exitDx=0;exitDy=0;entryX=0;entryY=0.5;entryDx=0;entryDy=0;" edge="1" parent="77e6c97f196da883-1" source="xVUOFaVbMT0TcznLDlmr-7" target="xVUOFaVbMT0TcznLDlmr-24">
          <mxGeometry relative="1" as="geometry" />
        </mxCell>
        <mxCell id="xVUOFaVbMT0TcznLDlmr-37" value="" style="edgeStyle=orthogonalEdgeStyle;rounded=0;orthogonalLoop=1;jettySize=auto;html=1;" edge="1" parent="77e6c97f196da883-1" source="xVUOFaVbMT0TcznLDlmr-30" target="xVUOFaVbMT0TcznLDlmr-36">
          <mxGeometry relative="1" as="geometry" />
        </mxCell>
        <mxCell id="xVUOFaVbMT0TcznLDlmr-41" value="" style="edgeStyle=orthogonalEdgeStyle;rounded=0;orthogonalLoop=1;jettySize=auto;html=1;" edge="1" parent="77e6c97f196da883-1" source="xVUOFaVbMT0TcznLDlmr-38" target="xVUOFaVbMT0TcznLDlmr-36">
          <mxGeometry relative="1" as="geometry" />
        </mxCell>
      </root>
    </mxGraphModel>
  </diagram>
</mxfile>
